<mxfile host="app.diagrams.net" modified="2021-05-04T18:43:41.283Z" agent="5.0 (Macintosh; Intel Mac OS X 10_15_7) AppleWebKit/537.36 (KHTML, like Gecko) Chrome/90.0.4430.93 Safari/537.36" etag="VrTWHolABvexw_tCmlQo" version="14.6.9" type="github">
  <diagram id="T1mZ5_TuGjbCNkDDGyvj" name="Halaman-1">
    <mxGraphModel dx="2776" dy="2760" grid="1" gridSize="10" guides="1" tooltips="1" connect="1" arrows="1" fold="1" page="1" pageScale="1" pageWidth="827" pageHeight="1169" math="0" shadow="0">
      <root>
        <mxCell id="0" />
        <mxCell id="1" parent="0" />
        <mxCell id="UaFrxnna17SQAAfgTdnW-178" value="" style="rounded=0;whiteSpace=wrap;html=1;fillColor=#FFFFFF;rotation=90;" vertex="1" parent="1">
          <mxGeometry x="-521.63" y="-100" width="1823.27" height="1613.89" as="geometry" />
        </mxCell>
        <mxCell id="UaFrxnna17SQAAfgTdnW-181" value="" style="rounded=0;whiteSpace=wrap;html=1;fillColor=#FFFFFF;rotation=90;" vertex="1" parent="1">
          <mxGeometry x="-480.14" y="411.1" width="1595" height="562.81" as="geometry" />
        </mxCell>
        <mxCell id="UaFrxnna17SQAAfgTdnW-119" value="" style="endArrow=none;html=1;exitX=0.25;exitY=0.1;exitDx=0;exitDy=0;exitPerimeter=0;entryX=1;entryY=0.5;entryDx=0;entryDy=0;" edge="1" parent="1" source="UaFrxnna17SQAAfgTdnW-134" target="UaFrxnna17SQAAfgTdnW-40">
          <mxGeometry width="50" height="50" relative="1" as="geometry">
            <mxPoint x="455" y="774.5" as="sourcePoint" />
            <mxPoint x="280" y="440" as="targetPoint" />
          </mxGeometry>
        </mxCell>
        <mxCell id="UaFrxnna17SQAAfgTdnW-120" value="" style="endArrow=none;html=1;entryX=1;entryY=0.5;entryDx=0;entryDy=0;exitX=0.25;exitY=0.1;exitDx=0;exitDy=0;exitPerimeter=0;" edge="1" parent="1" source="UaFrxnna17SQAAfgTdnW-134" target="UaFrxnna17SQAAfgTdnW-39">
          <mxGeometry width="50" height="50" relative="1" as="geometry">
            <mxPoint x="455" y="774.5" as="sourcePoint" />
            <mxPoint x="280" y="530" as="targetPoint" />
          </mxGeometry>
        </mxCell>
        <mxCell id="UaFrxnna17SQAAfgTdnW-121" value="" style="endArrow=none;html=1;exitX=1;exitY=0.5;exitDx=0;exitDy=0;entryX=0.25;entryY=0.1;entryDx=0;entryDy=0;entryPerimeter=0;" edge="1" parent="1" target="UaFrxnna17SQAAfgTdnW-134" source="UaFrxnna17SQAAfgTdnW-35">
          <mxGeometry width="50" height="50" relative="1" as="geometry">
            <mxPoint x="280" y="625" as="sourcePoint" />
            <mxPoint x="455" y="774.5" as="targetPoint" />
          </mxGeometry>
        </mxCell>
        <mxCell id="UaFrxnna17SQAAfgTdnW-122" value="" style="endArrow=none;html=1;entryX=1;entryY=0.5;entryDx=0;entryDy=0;exitX=0.25;exitY=0.1;exitDx=0;exitDy=0;exitPerimeter=0;" edge="1" parent="1" source="UaFrxnna17SQAAfgTdnW-134" target="UaFrxnna17SQAAfgTdnW-34">
          <mxGeometry width="50" height="50" relative="1" as="geometry">
            <mxPoint x="455" y="774.5" as="sourcePoint" />
            <mxPoint x="280" y="715" as="targetPoint" />
          </mxGeometry>
        </mxCell>
        <mxCell id="UaFrxnna17SQAAfgTdnW-123" value="" style="endArrow=none;html=1;entryX=1;entryY=0.5;entryDx=0;entryDy=0;exitX=0.25;exitY=0.1;exitDx=0;exitDy=0;exitPerimeter=0;" edge="1" parent="1" source="UaFrxnna17SQAAfgTdnW-134" target="UaFrxnna17SQAAfgTdnW-33">
          <mxGeometry width="50" height="50" relative="1" as="geometry">
            <mxPoint x="690" y="775" as="sourcePoint" />
            <mxPoint x="280" y="805" as="targetPoint" />
          </mxGeometry>
        </mxCell>
        <mxCell id="UaFrxnna17SQAAfgTdnW-124" value="" style="endArrow=none;html=1;entryX=1;entryY=0.5;entryDx=0;entryDy=0;exitX=0.25;exitY=0.1;exitDx=0;exitDy=0;exitPerimeter=0;" edge="1" parent="1" source="UaFrxnna17SQAAfgTdnW-134" target="UaFrxnna17SQAAfgTdnW-32">
          <mxGeometry width="50" height="50" relative="1" as="geometry">
            <mxPoint x="620" y="830" as="sourcePoint" />
            <mxPoint x="280" y="895" as="targetPoint" />
          </mxGeometry>
        </mxCell>
        <mxCell id="UaFrxnna17SQAAfgTdnW-125" value="" style="endArrow=none;html=1;exitX=0.25;exitY=0.1;exitDx=0;exitDy=0;exitPerimeter=0;entryX=1;entryY=0.5;entryDx=0;entryDy=0;" edge="1" parent="1" source="UaFrxnna17SQAAfgTdnW-134" target="UaFrxnna17SQAAfgTdnW-43">
          <mxGeometry width="50" height="50" relative="1" as="geometry">
            <mxPoint x="455" y="774.5" as="sourcePoint" />
            <mxPoint x="280" y="985" as="targetPoint" />
          </mxGeometry>
        </mxCell>
        <mxCell id="UaFrxnna17SQAAfgTdnW-127" value="" style="endArrow=none;html=1;exitX=0.25;exitY=0.1;exitDx=0;exitDy=0;exitPerimeter=0;entryX=1;entryY=0.5;entryDx=0;entryDy=0;" edge="1" parent="1" source="UaFrxnna17SQAAfgTdnW-134" target="UaFrxnna17SQAAfgTdnW-29">
          <mxGeometry width="50" height="50" relative="1" as="geometry">
            <mxPoint x="455" y="774.5" as="sourcePoint" />
            <mxPoint x="280" y="1165" as="targetPoint" />
          </mxGeometry>
        </mxCell>
        <mxCell id="UaFrxnna17SQAAfgTdnW-128" value="" style="endArrow=none;html=1;exitX=0.25;exitY=0.1;exitDx=0;exitDy=0;exitPerimeter=0;entryX=1;entryY=0.5;entryDx=0;entryDy=0;" edge="1" parent="1" source="UaFrxnna17SQAAfgTdnW-134" target="UaFrxnna17SQAAfgTdnW-44">
          <mxGeometry width="50" height="50" relative="1" as="geometry">
            <mxPoint x="455" y="774.5" as="sourcePoint" />
            <mxPoint x="280" y="1255" as="targetPoint" />
          </mxGeometry>
        </mxCell>
        <mxCell id="UaFrxnna17SQAAfgTdnW-2" value="&lt;span style=&quot;color: rgb(26 , 26 , 26) ; font-family: &amp;#34;opensans&amp;#34; , &amp;#34;arial&amp;#34; , sans-serif , &amp;#34;noto sans hebrew&amp;#34; , &amp;#34;noto sans&amp;#34; , &amp;#34;noto sans jp&amp;#34; , &amp;#34;noto sans kr&amp;#34; ; background-color: rgba(255 , 255 , 255 , 0.01)&quot;&gt;&lt;font style=&quot;font-size: 12px&quot;&gt;Mendaftarkan akun user&lt;/font&gt;&lt;/span&gt;" style="ellipse;whiteSpace=wrap;html=1;fillColor=#FFFFFF;" vertex="1" parent="1">
          <mxGeometry x="170" y="10" width="120" height="60" as="geometry" />
        </mxCell>
        <mxCell id="UaFrxnna17SQAAfgTdnW-3" value="&lt;span style=&quot;color: rgb(26 , 26 , 26) ; font-family: &amp;#34;opensans&amp;#34; , &amp;#34;arial&amp;#34; , sans-serif , &amp;#34;noto sans hebrew&amp;#34; , &amp;#34;noto sans&amp;#34; , &amp;#34;noto sans jp&amp;#34; , &amp;#34;noto sans kr&amp;#34; ; background-color: rgba(255 , 255 , 255 , 0.01)&quot;&gt;&lt;font style=&quot;font-size: 12px&quot;&gt;Melihat katalog sepatu&lt;/font&gt;&lt;/span&gt;" style="ellipse;whiteSpace=wrap;html=1;fillColor=#FFFFFF;" vertex="1" parent="1">
          <mxGeometry x="170" y="80" width="120" height="60" as="geometry" />
        </mxCell>
        <mxCell id="UaFrxnna17SQAAfgTdnW-6" value="&lt;span style=&quot;color: rgb(26 , 26 , 26) ; font-family: &amp;#34;opensans&amp;#34; , &amp;#34;arial&amp;#34; , sans-serif , &amp;#34;noto sans hebrew&amp;#34; , &amp;#34;noto sans&amp;#34; , &amp;#34;noto sans jp&amp;#34; , &amp;#34;noto sans kr&amp;#34; ; background-color: rgba(255 , 255 , 255 , 0.01)&quot;&gt;&lt;font style=&quot;font-size: 10px&quot;&gt;Memilih model, warna, motif, jenis kulit, dan ukuran untuk sepatu&lt;/font&gt;&lt;/span&gt;" style="ellipse;whiteSpace=wrap;html=1;fillColor=#FFFFFF;align=center;" vertex="1" parent="1">
          <mxGeometry x="170" y="290" width="120" height="60" as="geometry" />
        </mxCell>
        <mxCell id="UaFrxnna17SQAAfgTdnW-7" value="&lt;span style=&quot;color: rgb(26 , 26 , 26) ; font-family: &amp;#34;opensans&amp;#34; , &amp;#34;arial&amp;#34; , sans-serif , &amp;#34;noto sans hebrew&amp;#34; , &amp;#34;noto sans&amp;#34; , &amp;#34;noto sans jp&amp;#34; , &amp;#34;noto sans kr&amp;#34; ; background-color: rgba(255 , 255 , 255 , 0.01)&quot;&gt;&lt;font style=&quot;font-size: 9px&quot;&gt;Melihat &amp;amp; melakukan pencarian sepatu berdasarkan katalog&lt;/font&gt;&lt;/span&gt;" style="ellipse;whiteSpace=wrap;html=1;fillColor=#FFFFFF;" vertex="1" parent="1">
          <mxGeometry x="170" y="220" width="120" height="60" as="geometry" />
        </mxCell>
        <mxCell id="UaFrxnna17SQAAfgTdnW-8" value="&lt;span style=&quot;color: rgb(26 , 26 , 26) ; font-family: &amp;#34;opensans&amp;#34; , &amp;#34;arial&amp;#34; , sans-serif , &amp;#34;noto sans hebrew&amp;#34; , &amp;#34;noto sans&amp;#34; , &amp;#34;noto sans jp&amp;#34; , &amp;#34;noto sans kr&amp;#34; ; font-style: normal ; font-weight: normal ; letter-spacing: normal ; text-align: center ; text-indent: 0px ; text-transform: none ; word-spacing: 0px ; background-color: rgba(255 , 255 , 255 , 0.01) ; text-decoration: none ; display: inline ; float: none&quot;&gt;&lt;font style=&quot;font-size: 12px&quot;&gt;Melakukan login&lt;/font&gt;&lt;/span&gt;" style="ellipse;whiteSpace=wrap;html=1;fillColor=#FFFFFF;" vertex="1" parent="1">
          <mxGeometry x="170" y="150" width="120" height="60" as="geometry" />
        </mxCell>
        <mxCell id="UaFrxnna17SQAAfgTdnW-23" value="Actor" style="shape=umlActor;verticalLabelPosition=bottom;verticalAlign=top;html=1;outlineConnect=0;fillColor=#FFFFFF;" vertex="1" parent="1">
          <mxGeometry x="-70" y="170" width="60" height="95" as="geometry" />
        </mxCell>
        <mxCell id="UaFrxnna17SQAAfgTdnW-24" value="" style="endArrow=none;html=1;exitX=0.75;exitY=0.1;exitDx=0;exitDy=0;exitPerimeter=0;entryX=0;entryY=0.5;entryDx=0;entryDy=0;" edge="1" parent="1" source="UaFrxnna17SQAAfgTdnW-23" target="UaFrxnna17SQAAfgTdnW-2">
          <mxGeometry width="50" height="50" relative="1" as="geometry">
            <mxPoint x="260" y="310" as="sourcePoint" />
            <mxPoint x="310" y="260" as="targetPoint" />
          </mxGeometry>
        </mxCell>
        <mxCell id="UaFrxnna17SQAAfgTdnW-25" value="" style="endArrow=none;html=1;exitX=0.75;exitY=0.1;exitDx=0;exitDy=0;exitPerimeter=0;entryX=0;entryY=0.5;entryDx=0;entryDy=0;" edge="1" parent="1" source="UaFrxnna17SQAAfgTdnW-23" target="UaFrxnna17SQAAfgTdnW-3">
          <mxGeometry width="50" height="50" relative="1" as="geometry">
            <mxPoint x="260" y="310" as="sourcePoint" />
            <mxPoint x="310" y="260" as="targetPoint" />
          </mxGeometry>
        </mxCell>
        <mxCell id="UaFrxnna17SQAAfgTdnW-26" value="" style="endArrow=none;html=1;exitX=0.75;exitY=0.1;exitDx=0;exitDy=0;exitPerimeter=0;entryX=0;entryY=0.5;entryDx=0;entryDy=0;" edge="1" parent="1" source="UaFrxnna17SQAAfgTdnW-23" target="UaFrxnna17SQAAfgTdnW-8">
          <mxGeometry width="50" height="50" relative="1" as="geometry">
            <mxPoint x="260" y="310" as="sourcePoint" />
            <mxPoint x="310" y="260" as="targetPoint" />
          </mxGeometry>
        </mxCell>
        <mxCell id="UaFrxnna17SQAAfgTdnW-27" value="" style="endArrow=none;html=1;exitX=0.75;exitY=0.1;exitDx=0;exitDy=0;exitPerimeter=0;entryX=0;entryY=0.5;entryDx=0;entryDy=0;" edge="1" parent="1" source="UaFrxnna17SQAAfgTdnW-23" target="UaFrxnna17SQAAfgTdnW-7">
          <mxGeometry width="50" height="50" relative="1" as="geometry">
            <mxPoint x="260" y="310" as="sourcePoint" />
            <mxPoint x="310" y="260" as="targetPoint" />
          </mxGeometry>
        </mxCell>
        <mxCell id="UaFrxnna17SQAAfgTdnW-28" value="" style="endArrow=none;html=1;exitX=0.75;exitY=0.1;exitDx=0;exitDy=0;exitPerimeter=0;entryX=0;entryY=0.5;entryDx=0;entryDy=0;" edge="1" parent="1" source="UaFrxnna17SQAAfgTdnW-23" target="UaFrxnna17SQAAfgTdnW-6">
          <mxGeometry width="50" height="50" relative="1" as="geometry">
            <mxPoint x="260" y="310" as="sourcePoint" />
            <mxPoint x="310" y="260" as="targetPoint" />
          </mxGeometry>
        </mxCell>
        <mxCell id="UaFrxnna17SQAAfgTdnW-29" value="&lt;span style=&quot;color: rgb(26 , 26 , 26) ; font-family: &amp;#34;opensans&amp;#34; , &amp;#34;arial&amp;#34; , sans-serif , &amp;#34;noto sans hebrew&amp;#34; , &amp;#34;noto sans&amp;#34; , &amp;#34;noto sans jp&amp;#34; , &amp;#34;noto sans kr&amp;#34; ; font-style: normal ; font-weight: normal ; letter-spacing: normal ; text-align: center ; text-indent: 0px ; text-transform: none ; word-spacing: 0px ; background-color: rgba(255 , 255 , 255 , 0.01) ; text-decoration: none ; display: inline ; float: none&quot;&gt;&lt;font style=&quot;font-size: 12px&quot;&gt;fitur chat&lt;/font&gt;&lt;/span&gt;" style="ellipse;whiteSpace=wrap;html=1;fillColor=#FFFFFF;" vertex="1" parent="1">
          <mxGeometry x="170" y="1150" width="120" height="80" as="geometry" />
        </mxCell>
        <mxCell id="UaFrxnna17SQAAfgTdnW-32" value="&lt;span style=&quot;color: rgb(26 , 26 , 26) ; font-family: &amp;#34;opensans&amp;#34; , &amp;#34;arial&amp;#34; , sans-serif , &amp;#34;noto sans hebrew&amp;#34; , &amp;#34;noto sans&amp;#34; , &amp;#34;noto sans jp&amp;#34; , &amp;#34;noto sans kr&amp;#34; ; font-style: normal ; font-weight: normal ; letter-spacing: normal ; text-align: center ; text-indent: 0px ; text-transform: none ; word-spacing: 0px ; background-color: rgba(255 , 255 , 255 , 0.01) ; text-decoration: none ; display: inline ; float: none&quot;&gt;&lt;font style=&quot;font-size: 12px&quot;&gt;Mengkonfirmasi pesanan diterima/barang sampai&lt;/font&gt;&lt;/span&gt;" style="ellipse;whiteSpace=wrap;html=1;fillColor=#FFFFFF;" vertex="1" parent="1">
          <mxGeometry x="170" y="855" width="120" height="80" as="geometry" />
        </mxCell>
        <mxCell id="UaFrxnna17SQAAfgTdnW-33" value="&lt;span style=&quot;color: rgb(26 , 26 , 26) ; font-family: &amp;#34;opensans&amp;#34; , &amp;#34;arial&amp;#34; , sans-serif , &amp;#34;noto sans hebrew&amp;#34; , &amp;#34;noto sans&amp;#34; , &amp;#34;noto sans jp&amp;#34; , &amp;#34;noto sans kr&amp;#34; ; font-style: normal ; font-weight: normal ; letter-spacing: normal ; text-align: center ; text-indent: 0px ; text-transform: none ; word-spacing: 0px ; background-color: rgba(255 , 255 , 255 , 0.01) ; text-decoration: none ; display: inline ; float: none&quot;&gt;&lt;font style=&quot;font-size: 12px&quot;&gt;Melihat riwayat pembelian&lt;/font&gt;&lt;/span&gt;" style="ellipse;whiteSpace=wrap;html=1;fillColor=#FFFFFF;" vertex="1" parent="1">
          <mxGeometry x="170" y="765" width="120" height="80" as="geometry" />
        </mxCell>
        <mxCell id="UaFrxnna17SQAAfgTdnW-34" value="&lt;span style=&quot;color: rgb(26 , 26 , 26) ; font-family: &amp;#34;opensans&amp;#34; , &amp;#34;arial&amp;#34; , sans-serif , &amp;#34;noto sans hebrew&amp;#34; , &amp;#34;noto sans&amp;#34; , &amp;#34;noto sans jp&amp;#34; , &amp;#34;noto sans kr&amp;#34; ; background-color: rgba(255 , 255 , 255 , 0.01)&quot;&gt;&lt;font style=&quot;font-size: 12px&quot;&gt;Melacak keberadaan barang&lt;/font&gt;&lt;/span&gt;" style="ellipse;whiteSpace=wrap;html=1;fillColor=#FFFFFF;" vertex="1" parent="1">
          <mxGeometry x="170" y="675" width="120" height="80" as="geometry" />
        </mxCell>
        <mxCell id="UaFrxnna17SQAAfgTdnW-35" value="&lt;span style=&quot;color: rgb(26 , 26 , 26) ; font-family: &amp;#34;opensans&amp;#34; , &amp;#34;arial&amp;#34; , sans-serif , &amp;#34;noto sans hebrew&amp;#34; , &amp;#34;noto sans&amp;#34; , &amp;#34;noto sans jp&amp;#34; , &amp;#34;noto sans kr&amp;#34; ; background-color: rgba(255 , 255 , 255 , 0.01)&quot;&gt;&lt;font style=&quot;font-size: 12px&quot;&gt;Mengunggah bukti pembayaran&lt;/font&gt;&lt;/span&gt;" style="ellipse;whiteSpace=wrap;html=1;fillColor=#FFFFFF;" vertex="1" parent="1">
          <mxGeometry x="170" y="585" width="120" height="80" as="geometry" />
        </mxCell>
        <mxCell id="UaFrxnna17SQAAfgTdnW-36" value="&lt;span style=&quot;color: rgb(26 , 26 , 26) ; font-family: &amp;#34;opensans&amp;#34; , &amp;#34;arial&amp;#34; , sans-serif , &amp;#34;noto sans hebrew&amp;#34; , &amp;#34;noto sans&amp;#34; , &amp;#34;noto sans jp&amp;#34; , &amp;#34;noto sans kr&amp;#34; ; font-style: normal ; font-weight: normal ; letter-spacing: normal ; text-align: center ; text-indent: 0px ; text-transform: none ; word-spacing: 0px ; background-color: rgba(255 , 255 , 255 , 0.01) ; text-decoration: none ; display: inline ; float: none&quot;&gt;&lt;font style=&quot;font-size: 12px&quot;&gt;Memilih layanan dan paket pengiriman&lt;/font&gt;&lt;/span&gt;" style="ellipse;whiteSpace=wrap;html=1;fillColor=#FFFFFF;" vertex="1" parent="1">
          <mxGeometry x="310" y="1360" width="120" height="80" as="geometry" />
        </mxCell>
        <mxCell id="UaFrxnna17SQAAfgTdnW-37" value="&lt;span style=&quot;color: rgb(26 , 26 , 26) ; font-family: &amp;#34;opensans&amp;#34; , &amp;#34;arial&amp;#34; , sans-serif , &amp;#34;noto sans hebrew&amp;#34; , &amp;#34;noto sans&amp;#34; , &amp;#34;noto sans jp&amp;#34; , &amp;#34;noto sans kr&amp;#34; ; font-style: normal ; font-weight: normal ; letter-spacing: normal ; text-align: center ; text-indent: 0px ; text-transform: none ; word-spacing: 0px ; background-color: rgba(255 , 255 , 255 , 0.01) ; text-decoration: none ; display: inline ; float: none&quot;&gt;&lt;font style=&quot;font-size: 12px&quot;&gt;DP min 50% atau Lunas&lt;/font&gt;&lt;/span&gt;" style="ellipse;whiteSpace=wrap;html=1;fillColor=#FFFFFF;" vertex="1" parent="1">
          <mxGeometry x="190" y="1360" width="120" height="80" as="geometry" />
        </mxCell>
        <mxCell id="UaFrxnna17SQAAfgTdnW-38" value="&lt;span style=&quot;color: rgb(26 , 26 , 26) ; font-family: &amp;#34;opensans&amp;#34; , &amp;#34;arial&amp;#34; , sans-serif , &amp;#34;noto sans hebrew&amp;#34; , &amp;#34;noto sans&amp;#34; , &amp;#34;noto sans jp&amp;#34; , &amp;#34;noto sans kr&amp;#34; ; background-color: rgba(255 , 255 , 255 , 0.01)&quot;&gt;&lt;font style=&quot;font-size: 11px&quot;&gt;Menentukan metode pembayaran (transfer, kartu kredit/debit, e-wallet)&lt;/font&gt;&lt;/span&gt;" style="ellipse;whiteSpace=wrap;html=1;fillColor=#FFFFFF;" vertex="1" parent="1">
          <mxGeometry x="70" y="1360" width="120" height="80" as="geometry" />
        </mxCell>
        <mxCell id="UaFrxnna17SQAAfgTdnW-39" value="&lt;span style=&quot;color: rgb(26 , 26 , 26) ; font-family: &amp;#34;opensans&amp;#34; , &amp;#34;arial&amp;#34; , sans-serif , &amp;#34;noto sans hebrew&amp;#34; , &amp;#34;noto sans&amp;#34; , &amp;#34;noto sans jp&amp;#34; , &amp;#34;noto sans kr&amp;#34; ; font-style: normal ; font-weight: normal ; letter-spacing: normal ; text-align: center ; text-indent: 0px ; text-transform: none ; word-spacing: 0px ; background-color: rgba(255 , 255 , 255 , 0.01) ; text-decoration: none ; display: inline ; float: none&quot;&gt;&lt;font style=&quot;font-size: 12px&quot;&gt;Form custom sepatu&lt;/font&gt;&lt;/span&gt;" style="ellipse;whiteSpace=wrap;html=1;fillColor=#FFFFFF;" vertex="1" parent="1">
          <mxGeometry x="170" y="490" width="120" height="80" as="geometry" />
        </mxCell>
        <mxCell id="UaFrxnna17SQAAfgTdnW-40" value="&lt;span style=&quot;color: rgb(26 , 26 , 26) ; font-family: &amp;#34;opensans&amp;#34; , &amp;#34;arial&amp;#34; , sans-serif , &amp;#34;noto sans hebrew&amp;#34; , &amp;#34;noto sans&amp;#34; , &amp;#34;noto sans jp&amp;#34; , &amp;#34;noto sans kr&amp;#34; ; background-color: rgba(255 , 255 , 255 , 0.01)&quot;&gt;&lt;font style=&quot;font-size: 12px&quot;&gt;Menyimpan order dalam keranjang&lt;/font&gt;&lt;/span&gt;" style="ellipse;whiteSpace=wrap;html=1;fillColor=#FFFFFF;" vertex="1" parent="1">
          <mxGeometry x="170" y="400" width="120" height="80" as="geometry" />
        </mxCell>
        <mxCell id="UaFrxnna17SQAAfgTdnW-43" value="Form retur sepatu" style="ellipse;whiteSpace=wrap;html=1;fillColor=#FFFFFF;" vertex="1" parent="1">
          <mxGeometry x="170" y="945" width="120" height="80" as="geometry" />
        </mxCell>
        <mxCell id="UaFrxnna17SQAAfgTdnW-44" value="Checkout" style="ellipse;whiteSpace=wrap;html=1;fillColor=#FFFFFF;" vertex="1" parent="1">
          <mxGeometry x="170" y="1240" width="120" height="80" as="geometry" />
        </mxCell>
        <mxCell id="UaFrxnna17SQAAfgTdnW-46" value="" style="endArrow=none;dashed=1;html=1;startArrow=none;" edge="1" parent="1" source="UaFrxnna17SQAAfgTdnW-52" target="UaFrxnna17SQAAfgTdnW-37">
          <mxGeometry width="50" height="50" relative="1" as="geometry">
            <mxPoint x="260" y="1400" as="sourcePoint" />
            <mxPoint x="480" y="1200" as="targetPoint" />
          </mxGeometry>
        </mxCell>
        <mxCell id="UaFrxnna17SQAAfgTdnW-49" value="&amp;lt;&amp;lt;include&amp;gt;&amp;gt;" style="text;html=1;strokeColor=none;fillColor=none;align=center;verticalAlign=middle;whiteSpace=wrap;rounded=0;rotation=0;" vertex="1" parent="1">
          <mxGeometry x="110" y="1310" width="40" height="20" as="geometry" />
        </mxCell>
        <mxCell id="UaFrxnna17SQAAfgTdnW-52" value="&amp;lt;&amp;lt;include&amp;gt;&amp;gt;" style="text;html=1;strokeColor=none;fillColor=none;align=center;verticalAlign=middle;whiteSpace=wrap;rounded=0;rotation=0;" vertex="1" parent="1">
          <mxGeometry x="210" y="1340" width="40" height="20" as="geometry" />
        </mxCell>
        <mxCell id="UaFrxnna17SQAAfgTdnW-54" value="&amp;lt;&amp;lt;include&amp;gt;&amp;gt;" style="text;html=1;strokeColor=none;fillColor=none;align=center;verticalAlign=middle;whiteSpace=wrap;rounded=0;rotation=0;" vertex="1" parent="1">
          <mxGeometry x="350" y="1340" width="40" height="20" as="geometry" />
        </mxCell>
        <mxCell id="UaFrxnna17SQAAfgTdnW-57" value="Actor" style="shape=umlActor;verticalLabelPosition=bottom;verticalAlign=top;html=1;outlineConnect=0;fillColor=#FFFFFF;" vertex="1" parent="1">
          <mxGeometry x="-70" y="770" width="60" height="95" as="geometry" />
        </mxCell>
        <mxCell id="UaFrxnna17SQAAfgTdnW-58" value="" style="endArrow=none;html=1;exitX=0.75;exitY=0.1;exitDx=0;exitDy=0;exitPerimeter=0;entryX=0;entryY=0.5;entryDx=0;entryDy=0;" edge="1" parent="1" source="UaFrxnna17SQAAfgTdnW-57" target="UaFrxnna17SQAAfgTdnW-40">
          <mxGeometry width="50" height="50" relative="1" as="geometry">
            <mxPoint x="220" y="830" as="sourcePoint" />
            <mxPoint x="270" y="780" as="targetPoint" />
          </mxGeometry>
        </mxCell>
        <mxCell id="UaFrxnna17SQAAfgTdnW-60" value="" style="endArrow=none;html=1;entryX=0;entryY=0.5;entryDx=0;entryDy=0;exitX=0.75;exitY=0.1;exitDx=0;exitDy=0;exitPerimeter=0;" edge="1" parent="1" source="UaFrxnna17SQAAfgTdnW-57" target="UaFrxnna17SQAAfgTdnW-39">
          <mxGeometry width="50" height="50" relative="1" as="geometry">
            <mxPoint x="60" y="770" as="sourcePoint" />
            <mxPoint x="270" y="620" as="targetPoint" />
          </mxGeometry>
        </mxCell>
        <mxCell id="UaFrxnna17SQAAfgTdnW-61" value="" style="endArrow=none;html=1;exitX=0;exitY=0.5;exitDx=0;exitDy=0;entryX=0.75;entryY=0.1;entryDx=0;entryDy=0;entryPerimeter=0;" edge="1" parent="1" source="UaFrxnna17SQAAfgTdnW-35" target="UaFrxnna17SQAAfgTdnW-57">
          <mxGeometry width="50" height="50" relative="1" as="geometry">
            <mxPoint x="380" y="590" as="sourcePoint" />
            <mxPoint x="60" y="770" as="targetPoint" />
          </mxGeometry>
        </mxCell>
        <mxCell id="UaFrxnna17SQAAfgTdnW-62" value="" style="endArrow=none;html=1;entryX=0;entryY=0.5;entryDx=0;entryDy=0;exitX=0.75;exitY=0.1;exitDx=0;exitDy=0;exitPerimeter=0;" edge="1" parent="1" source="UaFrxnna17SQAAfgTdnW-57" target="UaFrxnna17SQAAfgTdnW-34">
          <mxGeometry width="50" height="50" relative="1" as="geometry">
            <mxPoint x="50" y="780" as="sourcePoint" />
            <mxPoint x="270" y="620" as="targetPoint" />
          </mxGeometry>
        </mxCell>
        <mxCell id="UaFrxnna17SQAAfgTdnW-63" value="" style="endArrow=none;html=1;entryX=0;entryY=0.5;entryDx=0;entryDy=0;exitX=0.75;exitY=0.1;exitDx=0;exitDy=0;exitPerimeter=0;" edge="1" parent="1" source="UaFrxnna17SQAAfgTdnW-57" target="UaFrxnna17SQAAfgTdnW-33">
          <mxGeometry width="50" height="50" relative="1" as="geometry">
            <mxPoint x="60" y="780" as="sourcePoint" />
            <mxPoint x="120" y="720" as="targetPoint" />
          </mxGeometry>
        </mxCell>
        <mxCell id="UaFrxnna17SQAAfgTdnW-64" value="" style="endArrow=none;html=1;exitX=0.75;exitY=0.1;exitDx=0;exitDy=0;exitPerimeter=0;entryX=0;entryY=0.5;entryDx=0;entryDy=0;" edge="1" parent="1" source="UaFrxnna17SQAAfgTdnW-57" target="UaFrxnna17SQAAfgTdnW-32">
          <mxGeometry width="50" height="50" relative="1" as="geometry">
            <mxPoint x="60" y="780" as="sourcePoint" />
            <mxPoint x="160" y="790" as="targetPoint" />
          </mxGeometry>
        </mxCell>
        <mxCell id="UaFrxnna17SQAAfgTdnW-65" value="" style="endArrow=none;html=1;exitX=0.75;exitY=0.1;exitDx=0;exitDy=0;exitPerimeter=0;entryX=0;entryY=0.5;entryDx=0;entryDy=0;" edge="1" parent="1" source="UaFrxnna17SQAAfgTdnW-57" target="UaFrxnna17SQAAfgTdnW-43">
          <mxGeometry width="50" height="50" relative="1" as="geometry">
            <mxPoint x="110" y="920" as="sourcePoint" />
            <mxPoint x="160" y="920" as="targetPoint" />
          </mxGeometry>
        </mxCell>
        <mxCell id="UaFrxnna17SQAAfgTdnW-67" value="" style="endArrow=none;html=1;exitX=0.75;exitY=0.1;exitDx=0;exitDy=0;exitPerimeter=0;entryX=0;entryY=0.5;entryDx=0;entryDy=0;" edge="1" parent="1" source="UaFrxnna17SQAAfgTdnW-57" target="UaFrxnna17SQAAfgTdnW-29">
          <mxGeometry width="50" height="50" relative="1" as="geometry">
            <mxPoint x="60" y="785" as="sourcePoint" />
            <mxPoint x="100" y="1050" as="targetPoint" />
          </mxGeometry>
        </mxCell>
        <mxCell id="UaFrxnna17SQAAfgTdnW-69" value="" style="endArrow=none;html=1;exitX=0.75;exitY=0.1;exitDx=0;exitDy=0;exitPerimeter=0;entryX=0;entryY=0.5;entryDx=0;entryDy=0;" edge="1" parent="1" source="UaFrxnna17SQAAfgTdnW-57" target="UaFrxnna17SQAAfgTdnW-44">
          <mxGeometry width="50" height="50" relative="1" as="geometry">
            <mxPoint x="60" y="790" as="sourcePoint" />
            <mxPoint x="150" y="1210" as="targetPoint" />
          </mxGeometry>
        </mxCell>
        <mxCell id="UaFrxnna17SQAAfgTdnW-71" value="&lt;span style=&quot;color: rgb(26 , 26 , 26) ; font-family: &amp;#34;opensans&amp;#34; , &amp;#34;arial&amp;#34; , sans-serif , &amp;#34;noto sans hebrew&amp;#34; , &amp;#34;noto sans&amp;#34; , &amp;#34;noto sans jp&amp;#34; , &amp;#34;noto sans kr&amp;#34; ; background-color: rgba(255 , 255 , 255 , 0.01)&quot;&gt;&lt;font style=&quot;font-size: 12px&quot;&gt;Menentukan harga sepatu custom&lt;/font&gt;&lt;/span&gt;" style="ellipse;whiteSpace=wrap;html=1;fillColor=#FFFFFF;" vertex="1" parent="1">
          <mxGeometry x="450" y="1360" width="120" height="80" as="geometry" />
        </mxCell>
        <mxCell id="UaFrxnna17SQAAfgTdnW-72" value="&lt;span style=&quot;color: rgb(26 , 26 , 26) ; font-family: &amp;#34;opensans&amp;#34; , &amp;#34;arial&amp;#34; , sans-serif , &amp;#34;noto sans hebrew&amp;#34; , &amp;#34;noto sans&amp;#34; , &amp;#34;noto sans jp&amp;#34; , &amp;#34;noto sans kr&amp;#34; ; font-style: normal ; font-weight: normal ; letter-spacing: normal ; text-align: center ; text-indent: 0px ; text-transform: none ; word-spacing: 0px ; background-color: rgba(255 , 255 , 255 , 0.01) ; text-decoration: none ; display: inline ; float: none&quot;&gt;&lt;font style=&quot;font-size: 12px&quot;&gt;Menentukan estimasi pesanan selesai&lt;/font&gt;&lt;/span&gt;" style="ellipse;whiteSpace=wrap;html=1;fillColor=#FFFFFF;" vertex="1" parent="1">
          <mxGeometry x="450" y="1270" width="120" height="80" as="geometry" />
        </mxCell>
        <mxCell id="UaFrxnna17SQAAfgTdnW-131" value="" style="endArrow=none;dashed=1;html=1;entryX=0;entryY=1;entryDx=0;entryDy=0;exitX=0.5;exitY=0;exitDx=0;exitDy=0;" edge="1" parent="1" source="UaFrxnna17SQAAfgTdnW-38" target="UaFrxnna17SQAAfgTdnW-44">
          <mxGeometry width="50" height="50" relative="1" as="geometry">
            <mxPoint x="310" y="1330" as="sourcePoint" />
            <mxPoint x="360" y="1280" as="targetPoint" />
          </mxGeometry>
        </mxCell>
        <mxCell id="UaFrxnna17SQAAfgTdnW-132" value="" style="endArrow=none;dashed=1;html=1;exitX=1;exitY=0.75;exitDx=0;exitDy=0;entryX=0.5;entryY=1;entryDx=0;entryDy=0;" edge="1" parent="1" source="UaFrxnna17SQAAfgTdnW-52" target="UaFrxnna17SQAAfgTdnW-44">
          <mxGeometry width="50" height="50" relative="1" as="geometry">
            <mxPoint x="310" y="1330" as="sourcePoint" />
            <mxPoint x="360" y="1280" as="targetPoint" />
          </mxGeometry>
        </mxCell>
        <mxCell id="UaFrxnna17SQAAfgTdnW-133" value="" style="endArrow=none;dashed=1;html=1;exitX=0.5;exitY=1;exitDx=0;exitDy=0;entryX=1;entryY=1;entryDx=0;entryDy=0;" edge="1" parent="1" source="UaFrxnna17SQAAfgTdnW-54" target="UaFrxnna17SQAAfgTdnW-44">
          <mxGeometry width="50" height="50" relative="1" as="geometry">
            <mxPoint x="310" y="1330" as="sourcePoint" />
            <mxPoint x="360" y="1280" as="targetPoint" />
          </mxGeometry>
        </mxCell>
        <mxCell id="UaFrxnna17SQAAfgTdnW-134" value="Actor" style="shape=umlActor;verticalLabelPosition=bottom;verticalAlign=top;html=1;outlineConnect=0;fillColor=#FFFFFF;" vertex="1" parent="1">
          <mxGeometry x="680" y="760" width="60" height="95" as="geometry" />
        </mxCell>
        <mxCell id="UaFrxnna17SQAAfgTdnW-136" value="" style="endArrow=none;html=1;entryX=1;entryY=0.5;entryDx=0;entryDy=0;exitX=0.25;exitY=0.1;exitDx=0;exitDy=0;exitPerimeter=0;" edge="1" parent="1" source="UaFrxnna17SQAAfgTdnW-134" target="UaFrxnna17SQAAfgTdnW-71">
          <mxGeometry width="50" height="50" relative="1" as="geometry">
            <mxPoint x="700" y="770" as="sourcePoint" />
            <mxPoint x="640" y="800" as="targetPoint" />
          </mxGeometry>
        </mxCell>
        <mxCell id="UaFrxnna17SQAAfgTdnW-137" value="" style="endArrow=none;html=1;entryX=0.5;entryY=0;entryDx=0;entryDy=0;exitX=0.25;exitY=0.1;exitDx=0;exitDy=0;exitPerimeter=0;" edge="1" parent="1" source="UaFrxnna17SQAAfgTdnW-134" target="UaFrxnna17SQAAfgTdnW-72">
          <mxGeometry width="50" height="50" relative="1" as="geometry">
            <mxPoint x="690" y="770" as="sourcePoint" />
            <mxPoint x="640" y="800" as="targetPoint" />
          </mxGeometry>
        </mxCell>
        <mxCell id="UaFrxnna17SQAAfgTdnW-140" value="&lt;span style=&quot;color: rgb(26 , 26 , 26) ; font-family: &amp;#34;opensans&amp;#34; , &amp;#34;arial&amp;#34; , sans-serif , &amp;#34;noto sans hebrew&amp;#34; , &amp;#34;noto sans&amp;#34; , &amp;#34;noto sans jp&amp;#34; , &amp;#34;noto sans kr&amp;#34; ; background-color: rgba(255 , 255 , 255 , 0.01)&quot;&gt;&lt;font style=&quot;font-size: 11px&quot;&gt;Menambah/mengurangi jumlah stok bahan&lt;/font&gt;&lt;/span&gt;" style="ellipse;whiteSpace=wrap;html=1;fillColor=#FFFFFF;" vertex="1" parent="1">
          <mxGeometry x="450" y="80" width="120" height="60" as="geometry" />
        </mxCell>
        <mxCell id="UaFrxnna17SQAAfgTdnW-143" value="&lt;span style=&quot;color: rgb(26 , 26 , 26) ; font-family: &amp;#34;opensans&amp;#34; , &amp;#34;arial&amp;#34; , sans-serif , &amp;#34;noto sans hebrew&amp;#34; , &amp;#34;noto sans&amp;#34; , &amp;#34;noto sans jp&amp;#34; , &amp;#34;noto sans kr&amp;#34; ; background-color: rgba(255 , 255 , 255 , 0.01)&quot;&gt;&lt;font style=&quot;font-size: 12px&quot;&gt;Melihat riwayat penjualan seluruh customer&lt;/font&gt;&lt;/span&gt;" style="ellipse;whiteSpace=wrap;html=1;fillColor=#FFFFFF;" vertex="1" parent="1">
          <mxGeometry x="450" y="150" width="120" height="60" as="geometry" />
        </mxCell>
        <mxCell id="UaFrxnna17SQAAfgTdnW-144" value="&lt;span style=&quot;color: rgb(26 , 26 , 26) ; font-family: &amp;#34;opensans&amp;#34; , &amp;#34;arial&amp;#34; , sans-serif , &amp;#34;noto sans hebrew&amp;#34; , &amp;#34;noto sans&amp;#34; , &amp;#34;noto sans jp&amp;#34; , &amp;#34;noto sans kr&amp;#34; ; background-color: rgba(255 , 255 , 255 , 0.01)&quot;&gt;&lt;font style=&quot;font-size: 11px&quot;&gt;Menambahkan, mengupdate, dan menghapus data sepatu&lt;/font&gt;&lt;/span&gt;" style="ellipse;whiteSpace=wrap;html=1;fillColor=#FFFFFF;" vertex="1" parent="1">
          <mxGeometry x="450" y="220" width="120" height="60" as="geometry" />
        </mxCell>
        <mxCell id="UaFrxnna17SQAAfgTdnW-145" value="&lt;span style=&quot;color: rgb(26 , 26 , 26) ; font-family: &amp;#34;opensans&amp;#34; , &amp;#34;arial&amp;#34; , sans-serif , &amp;#34;noto sans hebrew&amp;#34; , &amp;#34;noto sans&amp;#34; , &amp;#34;noto sans jp&amp;#34; , &amp;#34;noto sans kr&amp;#34; ; background-color: rgba(255 , 255 , 255 , 0.01)&quot;&gt;&lt;font style=&quot;font-size: 12px&quot;&gt;Mengkonfirmasi pesanan customer&lt;/font&gt;&lt;/span&gt;" style="ellipse;whiteSpace=wrap;html=1;fillColor=#FFFFFF;" vertex="1" parent="1">
          <mxGeometry x="450" y="290" width="120" height="60" as="geometry" />
        </mxCell>
        <mxCell id="UaFrxnna17SQAAfgTdnW-146" value="Actor" style="shape=umlActor;verticalLabelPosition=bottom;verticalAlign=top;html=1;outlineConnect=0;fillColor=#FFFFFF;" vertex="1" parent="1">
          <mxGeometry x="680" y="170" width="60" height="95" as="geometry" />
        </mxCell>
        <mxCell id="UaFrxnna17SQAAfgTdnW-147" value="" style="endArrow=none;html=1;exitX=0.25;exitY=0.1;exitDx=0;exitDy=0;exitPerimeter=0;entryX=1;entryY=0.5;entryDx=0;entryDy=0;" edge="1" parent="1" source="UaFrxnna17SQAAfgTdnW-146" target="UaFrxnna17SQAAfgTdnW-140">
          <mxGeometry width="50" height="50" relative="1" as="geometry">
            <mxPoint x="650" y="220" as="sourcePoint" />
            <mxPoint x="570" y="320" as="targetPoint" />
          </mxGeometry>
        </mxCell>
        <mxCell id="UaFrxnna17SQAAfgTdnW-149" value="" style="endArrow=none;html=1;entryX=0.25;entryY=0.1;entryDx=0;entryDy=0;entryPerimeter=0;exitX=1;exitY=0.5;exitDx=0;exitDy=0;" edge="1" parent="1" source="UaFrxnna17SQAAfgTdnW-143" target="UaFrxnna17SQAAfgTdnW-146">
          <mxGeometry width="50" height="50" relative="1" as="geometry">
            <mxPoint x="520" y="370" as="sourcePoint" />
            <mxPoint x="570" y="320" as="targetPoint" />
          </mxGeometry>
        </mxCell>
        <mxCell id="UaFrxnna17SQAAfgTdnW-150" value="" style="endArrow=none;html=1;entryX=0.25;entryY=0.1;entryDx=0;entryDy=0;entryPerimeter=0;exitX=1;exitY=0.5;exitDx=0;exitDy=0;" edge="1" parent="1" source="UaFrxnna17SQAAfgTdnW-144" target="UaFrxnna17SQAAfgTdnW-146">
          <mxGeometry width="50" height="50" relative="1" as="geometry">
            <mxPoint x="520" y="370" as="sourcePoint" />
            <mxPoint x="570" y="320" as="targetPoint" />
          </mxGeometry>
        </mxCell>
        <mxCell id="UaFrxnna17SQAAfgTdnW-151" value="" style="endArrow=none;html=1;entryX=0.25;entryY=0.1;entryDx=0;entryDy=0;entryPerimeter=0;exitX=1;exitY=0.5;exitDx=0;exitDy=0;" edge="1" parent="1" source="UaFrxnna17SQAAfgTdnW-145" target="UaFrxnna17SQAAfgTdnW-146">
          <mxGeometry width="50" height="50" relative="1" as="geometry">
            <mxPoint x="570" y="310" as="sourcePoint" />
            <mxPoint x="570" y="320" as="targetPoint" />
          </mxGeometry>
        </mxCell>
        <mxCell id="UaFrxnna17SQAAfgTdnW-160" value="User" style="rounded=0;whiteSpace=wrap;html=1;fillColor=#FFFFFF;" vertex="1" parent="1">
          <mxGeometry x="-70" y="270" width="60" height="20" as="geometry" />
        </mxCell>
        <mxCell id="UaFrxnna17SQAAfgTdnW-161" value="Customer" style="rounded=0;whiteSpace=wrap;html=1;fillColor=#FFFFFF;" vertex="1" parent="1">
          <mxGeometry x="-70" y="865" width="60" height="20" as="geometry" />
        </mxCell>
        <mxCell id="UaFrxnna17SQAAfgTdnW-162" value="Admin" style="rounded=0;whiteSpace=wrap;html=1;fillColor=#FFFFFF;" vertex="1" parent="1">
          <mxGeometry x="680" y="270" width="60" height="20" as="geometry" />
        </mxCell>
        <mxCell id="UaFrxnna17SQAAfgTdnW-163" value="Seller" style="rounded=0;whiteSpace=wrap;html=1;fillColor=#FFFFFF;" vertex="1" parent="1">
          <mxGeometry x="680" y="855" width="60" height="20" as="geometry" />
        </mxCell>
        <mxCell id="UaFrxnna17SQAAfgTdnW-164" value="" style="endArrow=none;html=1;entryX=0;entryY=1;entryDx=0;entryDy=0;exitX=0.5;exitY=0;exitDx=0;exitDy=0;exitPerimeter=0;" edge="1" parent="1" source="UaFrxnna17SQAAfgTdnW-134" target="UaFrxnna17SQAAfgTdnW-145">
          <mxGeometry width="50" height="50" relative="1" as="geometry">
            <mxPoint x="390" y="640" as="sourcePoint" />
            <mxPoint x="440" y="590" as="targetPoint" />
          </mxGeometry>
        </mxCell>
        <mxCell id="UaFrxnna17SQAAfgTdnW-168" value="" style="endArrow=none;dashed=1;html=1;entryX=1;entryY=0.5;entryDx=0;entryDy=0;exitX=0;exitY=0.5;exitDx=0;exitDy=0;" edge="1" parent="1" source="UaFrxnna17SQAAfgTdnW-144" target="UaFrxnna17SQAAfgTdnW-3">
          <mxGeometry width="50" height="50" relative="1" as="geometry">
            <mxPoint x="280" y="290" as="sourcePoint" />
            <mxPoint x="330" y="240" as="targetPoint" />
          </mxGeometry>
        </mxCell>
        <mxCell id="UaFrxnna17SQAAfgTdnW-169" value="&amp;lt;&amp;lt;extend&amp;gt;&amp;gt;" style="text;html=1;strokeColor=none;fillColor=none;align=center;verticalAlign=middle;whiteSpace=wrap;rounded=0;rotation=45;" vertex="1" parent="1">
          <mxGeometry x="370" y="170" width="40" height="20" as="geometry" />
        </mxCell>
        <mxCell id="UaFrxnna17SQAAfgTdnW-170" value="&lt;span style=&quot;color: rgb(26 , 26 , 26) ; font-family: &amp;#34;opensans&amp;#34; , &amp;#34;arial&amp;#34; , sans-serif , &amp;#34;noto sans hebrew&amp;#34; , &amp;#34;noto sans&amp;#34; , &amp;#34;noto sans jp&amp;#34; , &amp;#34;noto sans kr&amp;#34; ; background-color: rgba(255 , 255 , 255 , 0.01)&quot;&gt;&lt;font style=&quot;font-size: 12px&quot;&gt;Melakukan dan mengkonfirmasi retur&lt;/font&gt;&lt;/span&gt;" style="ellipse;whiteSpace=wrap;html=1;fillColor=#FFFFFF;" vertex="1" parent="1">
          <mxGeometry x="170" y="1060" width="120" height="80" as="geometry" />
        </mxCell>
        <mxCell id="UaFrxnna17SQAAfgTdnW-171" value="" style="endArrow=none;dashed=1;html=1;exitX=0.5;exitY=0;exitDx=0;exitDy=0;entryX=0.5;entryY=1;entryDx=0;entryDy=0;" edge="1" parent="1" source="UaFrxnna17SQAAfgTdnW-170" target="UaFrxnna17SQAAfgTdnW-43">
          <mxGeometry width="50" height="50" relative="1" as="geometry">
            <mxPoint x="260" y="1110" as="sourcePoint" />
            <mxPoint x="310" y="1060" as="targetPoint" />
          </mxGeometry>
        </mxCell>
        <mxCell id="UaFrxnna17SQAAfgTdnW-172" value="&amp;lt;&amp;lt;include&amp;gt;&amp;gt;" style="text;html=1;strokeColor=none;fillColor=none;align=center;verticalAlign=middle;whiteSpace=wrap;rounded=0;rotation=0;" vertex="1" parent="1">
          <mxGeometry x="250" y="1030" width="40" height="20" as="geometry" />
        </mxCell>
        <mxCell id="UaFrxnna17SQAAfgTdnW-180" value="&lt;b&gt;Custom Leather Shoes E-commerce&lt;/b&gt;" style="text;html=1;strokeColor=none;fillColor=none;align=center;verticalAlign=middle;whiteSpace=wrap;rounded=0;" vertex="1" parent="1">
          <mxGeometry x="250" y="-60" width="210" height="20" as="geometry" />
        </mxCell>
      </root>
    </mxGraphModel>
  </diagram>
</mxfile>
